<?xml version="1.0" standalone="no"?>
<!DOCTYPE svg PUBLIC "-//W3C//DTD SVG 20010904//EN"
 "http://www.w3.org/TR/2001/REC-SVG-20010904/DTD/svg10.dtd">
<svg version="1.0" xmlns="http://www.w3.org/2000/svg"
 width="1536.000000pt" height="1024.000000pt" viewBox="0 0 1536.000000 1024.000000"
 preserveAspectRatio="xMidYMid meet">

<g transform="translate(0.000000,1024.000000) scale(0.100000,-0.100000)"
fill="#000000" stroke="none">
<path d="M3020 8195 l0 -475 145 0 145 0 0 160 0 160 185 0 185 0 0 -160 0
-160 145 0 145 0 0 475 0 476 -146 -3 -146 -3 1 -167 2 -168 -186 0 -185 0 0
170 0 170 -145 0 -145 0 0 -475z"/>
<path d="M4130 8668 c0 -2 -2 -69 -3 -151 l-2 -147 153 0 152 0 0 -325 0 -325
145 0 145 0 0 325 0 325 150 0 150 0 0 150 0 150 -445 0 c-245 0 -445 -1 -445
-2z"/>
<path d="M5190 8195 l0 -475 145 0 145 0 2 255 3 256 114 -166 115 -165 45 0
46 1 110 163 110 164 3 -254 2 -254 150 0 150 0 0 475 0 475 -167 -2 -168 -3
-115 -192 c-63 -106 -118 -192 -121 -193 -4 0 -59 88 -124 195 l-118 195 -163
0 -164 0 0 -475z"/>
<path d="M6527 8663 c-4 -3 -7 -217 -7 -475 l0 -468 375 0 375 0 0 135 0 135
-225 0 -225 0 0 340 0 340 -143 0 c-79 0 -147 -3 -150 -7z"/>
<path d="M9025 8658 c-52 -19 -83 -47 -100 -91 -14 -37 -16 -88 -13 -387 3
-340 3 -346 26 -382 13 -21 40 -45 66 -57 40 -20 59 -21 389 -21 l347 0 0 135
0 135 -270 0 -270 0 0 195 0 195 270 0 270 0 0 145 0 145 -342 -1 c-215 0
-354 -5 -373 -11z"/>
<path d="M10078 8660 c-51 -15 -89 -45 -108 -85 -17 -35 -20 -62 -20 -171 l0
-130 231 -139 232 -140 -232 -3 -231 -2 0 -135 0 -135 329 0 c352 0 387 4 440
53 41 38 51 78 51 199 l0 113 -221 145 c-121 80 -229 149 -240 154 -10 5 -19
12 -19 16 0 4 106 5 235 2 l235 -5 0 137 0 136 -327 -1 c-181 0 -340 -4 -355
-9z"/>
<path d="M11091 8655 c-98 -31 -121 -78 -121 -252 l0 -128 225 -134 c124 -73
228 -137 231 -142 3 -5 -93 -9 -220 -9 l-226 0 0 -135 0 -135 313 0 c184 0
327 4 349 10 48 14 97 55 114 97 9 21 14 73 14 150 l0 118 -237 155 -237 155
222 3 222 2 0 130 0 130 -302 -1 c-226 0 -314 -4 -347 -14z"/>
<path d="M2675 7373 c3 -16 41 -390 85 -833 239 -2416 381 -3825 388 -3832 7
-6 702 -251 1287 -453 165 -57 390 -135 499 -174 110 -39 208 -71 218 -71 16
0 213 70 1429 506 l527 189 6 65 c3 36 35 382 71 770 36 388 117 1250 180
1915 64 666 129 1352 145 1525 16 173 32 339 36 368 l5 52 -2440 0 -2440 0 4
-27z m4081 -955 c-7 -46 -56 -494 -56 -509 0 -5 -531 -9 -1255 -9 l-1255 0 0
-23 c0 -13 11 -149 25 -301 14 -153 25 -279 25 -282 0 -2 540 -4 1200 -4 660
0 1200 -3 1200 -7 0 -8 -80 -993 -124 -1516 -13 -153 -27 -282 -32 -286 -5 -5
-65 -27 -134 -49 -69 -21 -361 -116 -649 -211 -289 -94 -533 -171 -542 -171
-9 0 -113 31 -230 69 -118 38 -412 133 -654 211 -242 79 -443 145 -447 149 -4
3 -23 177 -43 386 -19 209 -38 407 -41 441 l-6 61 293 6 c162 3 295 5 296 3 2
-1 12 -108 23 -236 12 -129 22 -235 23 -236 5 -3 754 -237 772 -241 11 -3 110
25 220 61 110 35 281 90 380 121 99 31 183 60 187 64 3 3 18 157 32 341 15
184 29 361 33 394 l6 58 -1146 -7 c-975 -7 -1147 -6 -1152 6 -5 14 -49 433
-130 1229 -24 245 -47 464 -50 488 l-6 42 1622 0 1621 0 -6 -42z"/>
<path d="M7865 7358 c5 -41 184 -1916 359 -3771 46 -483 87 -882 92 -886 8 -7
380 -140 1519 -542 231 -82 426 -149 434 -149 8 0 249 84 535 186 287 103 726
260 976 350 270 96 456 168 457 176 3 15 28 280 178 1858 147 1551 265 2801
265 2811 0 5 -1066 9 -2411 9 l-2410 0 6 -42z m3944 -1150 c-15 -139 -28 -265
-28 -280 l-1 -28 -1200 0 c-681 0 -1200 -4 -1200 -9 0 -5 9 -120 20 -257 10
-137 20 -270 21 -296 l3 -48 1152 0 1153 0 -5 -32 c-3 -18 -18 -179 -34 -358
-63 -698 -130 -1414 -133 -1416 -2 -2 -289 -100 -640 -218 l-637 -215 -327
113 c-181 63 -470 160 -643 217 -173 57 -316 104 -317 105 -3 1 -73 826 -73
857 0 16 21 17 295 17 l295 0 1 -37 c0 -21 8 -123 17 -227 l17 -188 364 -124
363 -123 362 123 361 123 35 397 36 398 -1087 -8 -1087 -7 -6 44 c-6 43 -86
929 -126 1389 -11 129 -22 259 -26 288 l-5 52 1553 0 1554 0 -27 -252z"/>
</g>
</svg>
